# xmcd
#
# Track frame offsets: 
#        150
#        16921
#        38360
#        57113
#        80876
#        98509
#        122380
#        140711
#        161369
#        177203
#
# Disc length: 2668 seconds
#
# Revision: 0
# Processed by: cddbd v1.5.2PL0 Copyright (c) Steve Scherf et al.
# Submitted via: ExactAudioCopy v0.99pb3
#
DISCID=6f0a6a0a
DTITLE=Greg Baker and Highway 61 - Greg Baker and Highway 61
DYEAR=2004
DGENRE=Blues
TTITLE0=Runnin' Blue
TTITLE1=Don't Let The Door Hit Ya'
TTITLE2=She'll Be So Fine
TTITLE3=I'm Getting Used To The Blues
TTITLE4=Blues People
TTITLE5=C.O.D.
TTITLE6=The Road
TTITLE7=Jessie's Groove
TTITLE8=Cold Turkey Blues
TTITLE9=At Last
EXTD=
EXTT0=
EXTT1=
EXTT2=
EXTT3=
EXTT4=
EXTT5=
EXTT6=
EXTT7=
EXTT8=
EXTT9=
PLAYORDER=
